<svg id="fedcd97f-24ce-4ed4-8563-f93ddad7cbca" data-name="Capa 1" xmlns="http://www.w3.org/2000/svg" viewBox="0 0 1197.34 277.7"><defs><style>.acb98417-1d12-46b5-b5a6-12d8cf028613{fill:#fff;}</style></defs><path class="acb98417-1d12-46b5-b5a6-12d8cf028613" d="M-.08,81V15.48c0-1.67,0-3.33.08-5A9.73,9.73,0,0,1,7.05,1.15,24.89,24.89,0,0,1,14.89.08c40.32-.06,80.64-.14,121,0,23.67.08,46.32,4.87,67.22,16.33,34.2,18.73,57.12,46.69,68.24,84.2A127.58,127.58,0,0,1,276.83,138c-.28,35.1-11.52,66.25-34.92,92.74C220.49,255,193.73,270,162,275.51c-34.47,6-66.91-.33-96.72-18.82-27.45-17-46.62-40.93-57.64-71.24a120.54,120.54,0,0,1-7.65-41C0,123.27,0,102.12,0,81Zm139,153.11c52.62,1,96.35-43.17,96.57-95.85s-43.64-96.45-95.95-96.67c-51.84-.21-96.48,42.77-96.62,96C42.76,191,87.1,234.77,138.9,234.07Z" transform="translate(0.08)"/><path class="acb98417-1d12-46b5-b5a6-12d8cf028613" d="M1158.25,137.35c0-13.83,0-27.66,0-41.49a40.41,40.41,0,0,1,.58-7,19.13,19.13,0,0,1,20.26-16.14A19.7,19.7,0,0,1,1197.17,91c.06.83,0,1.66,0,2.49,0,26.83.14,53.66-.07,80.48a82.6,82.6,0,0,1-13,44.47c-13.58,21.29-33,33.91-58,37.7-24.63,3.74-47.48-1-67.38-16.48-17.46-13.61-27.62-31.71-30.84-53.61a99.57,99.57,0,0,1-1-13.91c-.1-26.49.09-53-.14-79.48a19.94,19.94,0,0,1,15.46-19.48c10.62-2.42,22.08,5.8,23,16.69.17,2,.1,4,.1,6,0,26.5-.07,53,0,79.48,0,13.78,4.49,25.82,15,35.13,24,21.19,68.92,12.72,76.9-24.24a56.48,56.48,0,0,0,.87-11.42C1158.31,162.34,1158.25,149.85,1158.25,137.35Z" transform="translate(0.08)"/><path class="acb98417-1d12-46b5-b5a6-12d8cf028613" d="M814.88,135.37c0-14.33-.07-28.67,0-43,.06-9.61,5.93-16.73,15.32-19,10.66-2.53,22.08,5.64,23,16.54.18,2,.11,4,.11,6,0,26.5,0,53,0,79.5,0,13.79,4.42,25.84,15,35.16a44.65,44.65,0,0,0,27.67,11.26c12.45.75,23.86-2,33.68-9.93,10.13-8.14,15.73-18.75,16.39-31.83.12-2.49.13-5,.13-7.49q0-37.76,0-75.5a52.88,52.88,0,0,1,.58-8,19.11,19.11,0,0,1,19.59-16.37,19.68,19.68,0,0,1,18.74,18.1c.07.83,0,1.67,0,2.5,0,26.67.15,53.33-.06,80-.15,20-6.33,38-19,53.53-13.19,16.14-30.27,25.8-50.81,29.16-20.89,3.42-40.9.73-59.29-10.12-22.78-13.45-35.94-33.65-40.06-59.68a115.1,115.1,0,0,1-1.08-16.41c-.16-11.5,0-23,0-34.5Z" transform="translate(0.08)"/><path class="acb98417-1d12-46b5-b5a6-12d8cf028613" d="M704.61,71.77a107.71,107.71,0,0,1,54.23,12.86,59.32,59.32,0,0,1,11.46,8.68c3.36,3.07,4.47,7.29,4,11.88a13.15,13.15,0,0,1-12.07,12c-5.73.64-10.8-1.19-15.83-3.58a160.26,160.26,0,0,0-15.49-6.85c-13.83-4.89-28.07-5-42.39-2.67a37,37,0,0,0-7.57,2.42c-12.56,5-13.46,22.63-2.28,29A96.43,96.43,0,0,0,695,142.71c10.7,3.64,21.63,6.59,32.37,10.12,11.4,3.75,22.6,8,32.5,15,12,8.51,17.84,20,18.58,34.71,1.17,23.5-12.33,39.46-30.71,47.37-10,4.31-20.54,6.41-31.43,7.28a119.24,119.24,0,0,1-52-7A92,92,0,0,1,642,238.16,24.39,24.39,0,0,1,632.8,226c-3.34-10.06,3.81-19.87,16.23-18.85,5.54.46,10,3.42,14.36,6.56A77.54,77.54,0,0,0,685.53,225c12.48,3.93,25.1,5,37.87,1.66a34.58,34.58,0,0,0,8.74-3.52c11.32-6.67,12.08-21.47,1.36-29.1a47.92,47.92,0,0,0-12-6c-8.64-3-17.46-5.43-26.22-8.06-14.39-4.3-28.51-9.21-41-17.82-10.47-7.19-17.62-16.69-20.07-29.29-4.48-23.16,5.4-41,24.58-51.37,11.18-6,23.3-8.76,35.85-9.73C697.93,71.55,701.27,71.77,704.61,71.77Z" transform="translate(0.08)"/><path class="acb98417-1d12-46b5-b5a6-12d8cf028613" d="M520.09,70.94c21.37.82,40.11,4.66,57.32,14.41,4.39,2.48,8.41,5.46,11.22,9.73,5.73,8.73,1.15,20.34-8.74,21.76a22.28,22.28,0,0,1-9.33-.68,74.54,74.54,0,0,1-12.35-5.29c-12.43-6.44-25.72-9-39.55-8.61-7.13.18-14.3.79-21,3.84-6.52,3-10.22,7.88-10.33,15.12-.08,5.3,1.81,9.89,6.32,12.89a45.91,45.91,0,0,0,10,5.46c10.35,3.63,20.84,6.85,31.29,10.17,12.54,4,25.08,7.88,36.48,14.68A52.1,52.1,0,0,1,586,176.49c8,10.14,10.28,21.94,8.82,34.38-2.18,18.57-13,30.86-29.62,38.43-11.67,5.32-24,7.44-36.81,8-16.17.71-31.84-1.33-47-7.09a95.37,95.37,0,0,1-22.37-12c-4.12-3-7.46-6.61-9.13-11.56-4.27-12.7,5.72-20.84,16.21-19.55a24.59,24.59,0,0,1,11,4.41c3.57,2.45,7.12,4.94,10.86,7.11a73.39,73.39,0,0,0,34.69,9.9c8,.3,16-.6,23.44-3.9,5.75-2.54,10-6.5,11.3-13,1.16-5.79.15-11.11-4.24-15.13a30.89,30.89,0,0,0-9.49-6.26c-9-3.38-18.2-6.34-27.43-9.08-12-3.55-23.88-7.24-35-13-8.35-4.31-16-9.55-21.93-17-12.93-16.07-15.35-49.17,10.76-66.45a77.4,77.4,0,0,1,31.51-11.82C508.29,71.82,515.12,71.43,520.09,70.94Z" transform="translate(0.08)"/><path class="acb98417-1d12-46b5-b5a6-12d8cf028613" d="M403.53,164.27c0,23.32,0,46.64,0,70a30.44,30.44,0,0,1-1,8.85c-3.24,10.38-13.22,13.55-20.27,12.74A19.08,19.08,0,0,1,365,237.93c-.1-1.49,0-3,0-4.49q0-69.21,0-138.41a31.73,31.73,0,0,1,1.17-9.33C368.91,77.06,378,71.63,387,72.9c9.3,1.32,16.2,8.56,16.42,17.93.28,11.48.12,23,.13,34.47Q403.55,144.79,403.53,164.27Z" transform="translate(0.08)"/><path class="acb98417-1d12-46b5-b5a6-12d8cf028613" d="M361.89,23.09A22.63,22.63,0,0,1,384.53.68c10.33,0,22.55,8.15,22.37,22.74S395.17,45.79,384.19,45.9C372.07,46,361.84,35.4,361.89,23.09Z" transform="translate(0.08)"/><path class="acb98417-1d12-46b5-b5a6-12d8cf028613" d="M69,138.42c-.91-37.34,30.32-70.56,70.28-70.53,39.65,0,70.34,33.2,70.25,70.77-.09,37.27-30.75,70.16-70.22,70.28C100,209.05,68,176,69,138.42ZM139.19,174c17.94.61,35.55-13.88,35.75-35.29.2-20.84-17-36-35.71-36.06-17.55-.08-35.61,13.76-35.8,35.46C103.23,159.66,121.12,174.59,139.19,174Z" transform="translate(0.08)"/></svg>